{"title":"Teachers 2016 S01E02 720p HDTV x265 HEVC-RnC mp4","uid":13268579,"size":155028358,"categoryP":"video","categoryS":"tv_shows","magnet":"?xt=urn:btih:2ab4cc8ff30ad7e629275ef0b13651a3592995ab&amp;dn=Teachers+2016+S01E02+720p+HDTV+x265+HEVC-RnC+mp4&amp;tr=udp%3A%2F%2Ftracker.leechers-paradise.org%3A6969&amp;tr=udp%3A%2F%2Fzer0day.ch%3A1337&amp;tr=udp%3A%2F%2Fopen.demonii.com%3A1337&amp;tr=udp%3A%2F%2Ftracker.coppersurfer.tk%3A6969&amp;tr=udp%3A%2F%2Fexodus.desync.com%3A6969","seeders":1,"leechers":0,"uploader":"Anon_up","files":1,"time":1453369099,"description":"[center]\r\nIf you like my work\r\n[color=orange]Donate Bitcoin:[/color] [color=green]1PWLan3jUdKdofaXUuRHMEM6m17E9v2fP6[/color]\r\n[img]http://i.imgur.com/p94fYT2.png[/img]\r\n\r\nInfo\r\nmp4 for mac-users :)\r\n\r\nScreenShots\r\n[img]http://i.imgur.com/Q0Q94vk.jpg[/img]\r\n\r\nMediaInfo\r\n[spoiler]\r\nGeneral\r\nComplete name : Teachers.2016.S01E02.720p.HDTV.x265-RnC.mp4\r\nFormat : MPEG-4\r\nFormat profile : Base Media\r\nCodec ID : isom (isom/iso2/mp41)\r\nFile size : 148 MiB\r\nDuration : 19mn 43s\r\nOverall bit rate : 1 048 Kbps\r\nMovie name : RnC | Teachers\r\nWriting application : Lavf56.40.101\r\nComment : ReiNCarnate\r\n\r\nVideo\r\nID : 1\r\nFormat : HEVC\r\nFormat/Info : High Efficiency Video Coding\r\nFormat profile :   @Main\r\nCodec ID : hev1\r\nCodec ID/Info : High Efficiency Video Coding\r\nDuration : 19mn 43s\r\nBit rate : 994 Kbps\r\nWidth : 1 280 pixels\r\nHeight : 720 pixels\r\nDisplay aspect ratio : 16:9\r\nFrame rate mode : Constant\r\nFrame rate : 25.000 fps\r\nColor space : YUV\r\nChroma subsampling : 4:2:0\r\nBit depth : 8 bits\r\nScan type : Progressive\r\nBits/(Pixel*Frame) : 0.043\r\nStream size : 140 MiB (95%)\r\nWriting library : x265 1.8+191-375ce77b8c35:[Linux][GCC 4.9.2][64 bit] 8bit\r\nEncoding settings : wpp / ctu=64 / min-cu-size=8 / max-tu-size=32 / tu-intra-depth=1 / tu-inter-depth=1 / me=1 / subme=2 / merange=57 / no-rect / no-amp / max-merge=2 / temporal-mvp / no-early-skip / rdpenalty=0 / no-tskip / no-tskip-fast / strong-intra-smoothing / no-lossless / no-cu-lossless / no-constrained-intra / no-fast-intra / open-gop / no-temporal-layers / interlace=0 / keyint=250 / min-keyint=25 / scenecut=40 / rc-lookahead=20 / lookahead-slices=4 / bframes=4 / bframe-bias=0 / b-adapt=2 / ref=3 / limit-refs=3 / no-limit-modes / weightp / no-weightb / aq-mode=1 / qg-size=32 / aq-strength=1.00 / cbqpoffs=0 / crqpoffs=0 / rd=3 / psy-rd=0.30 / rdoq-level=0 / psy-rdoq=0.00 / signhide / deblock / sao / no-sao-non-deblock / b-pyramid / cutree / no-intra-refresh / rc=abr / bitrate=985 / qcomp=0.60 / qpmin=0 / qpmax=51 / qpstep=4 / ipratio=1.40 / pbratio=1.30\r\nLanguage : English\r\n\r\nAudio\r\nID : 2\r\nFormat : AAC\r\nFormat/Info : Advanced Audio Codec\r\nFormat profile : LC\r\nCodec ID : 40\r\nDuration : 19mn 43s\r\nBit rate mode : Constant\r\nBit rate : 48.0 Kbps\r\nChannel(s) : 2 channels\r\nChannel(s)_Original : 1 channel\r\nChannel positions : Front: C\r\nSampling rate : 44.1 KHz\r\nFrame rate : 43.066 fps (1024 spf)\r\nCompression mode : Lossy\r\nStream size : 6.77 MiB (5%)\r\nDefault : Yes\r\nAlternate group : 1\r\n\r\n\r\n[/spoiler][/center]","torrent":{"xt":"urn:btih:2ab4cc8ff30ad7e629275ef0b13651a3592995ab","amp;dn":"Teachers+2016+S01E02+720p+HDTV+x265+HEVC-RnC+mp4","amp;tr":["udp%3A%2F%2Ftracker.leechers-paradise.org%3A6969","udp%3A%2F%2Fzer0day.ch%3A1337","udp%3A%2F%2Fopen.demonii.com%3A1337","udp%3A%2F%2Ftracker.coppersurfer.tk%3A6969","udp%3A%2F%2Fexodus.desync.com%3A6969"],"infoHash":"2ab4cc8ff30ad7e629275ef0b13651a3592995ab","infoHashBuffer":{"type":"Buffer","data":[42,180,204,143,243,10,215,230,41,39,94,240,177,54,81,163,89,41,149,171]},"announce":[],"urlList":[]}}